<mxfile host="Electron" modified="2025-10-12T15:24:11.017Z" agent="Mozilla/5.0 (Windows NT 10.0; Win64; x64) AppleWebKit/537.36 (KHTML, like Gecko) draw.io/24.2.5 Chrome/120.0.6099.109 Electron/28.1.0 Safari/537.36" etag="SACrtEl5XbN-RSi_j0sD" version="24.2.5" type="device">
  <diagram name="Page-1" id="2a216829-ef6e-dabb-86c1-c78162f3ba2b">
    <mxGraphModel dx="1434" dy="964" grid="1" gridSize="10" guides="1" tooltips="1" connect="1" arrows="1" fold="1" page="1" pageScale="1" pageWidth="850" pageHeight="1100" background="none" math="0" shadow="0">
      <root>
        <mxCell id="0" />
        <mxCell id="1" parent="0" />
        <mxCell id="7a84cebc1def654-1" value="" style="shape=mxgraph.bpmn.shape;html=1;verticalLabelPosition=bottom;labelBackgroundColor=#ffffff;verticalAlign=top;perimeter=ellipsePerimeter;outline=standard;symbol=general;" parent="1" vertex="1">
          <mxGeometry x="140" y="30" width="50" height="50" as="geometry" />
        </mxCell>
        <mxCell id="7a84cebc1def654-2" value="Verbunden mit primär Server" style="shape=ext;rounded=1;html=1;whiteSpace=wrap;" parent="1" vertex="1">
          <mxGeometry x="110" y="105" width="109.99999999999999" height="60" as="geometry" />
        </mxCell>
        <mxCell id="7a84cebc1def654-8" value="Verbindungsverlust erkannt" style="shape=ext;rounded=1;html=1;whiteSpace=wrap;" parent="1" vertex="1">
          <mxGeometry x="110" y="280" width="109.99999999999999" height="60" as="geometry" />
        </mxCell>
        <mxCell id="7a84cebc1def654-36" style="edgeStyle=orthogonalEdgeStyle;rounded=0;html=1;jettySize=auto;orthogonalLoop=1;" parent="1" source="7a84cebc1def654-1" target="7a84cebc1def654-2" edge="1">
          <mxGeometry relative="1" as="geometry" />
        </mxCell>
        <mxCell id="7a84cebc1def654-39" style="edgeStyle=orthogonalEdgeStyle;rounded=0;html=1;jettySize=auto;orthogonalLoop=1;entryX=0.5;entryY=0;entryDx=0;entryDy=0;entryPerimeter=0;" parent="1" source="7a84cebc1def654-2" target="bk6HHgUinGHfW-IjAUi0-1" edge="1">
          <mxGeometry relative="1" as="geometry">
            <mxPoint x="165" y="195" as="targetPoint" />
          </mxGeometry>
        </mxCell>
        <mxCell id="d2HoR_rY1_GPFjVi6Aux-2" style="edgeStyle=orthogonalEdgeStyle;rounded=0;html=1;jettySize=auto;orthogonalLoop=1;exitX=0.5;exitY=1;exitDx=0;exitDy=0;entryX=0.5;entryY=0;entryDx=0;entryDy=0;exitPerimeter=0;" parent="1" source="bk6HHgUinGHfW-IjAUi0-1" target="7a84cebc1def654-8" edge="1">
          <mxGeometry relative="1" as="geometry">
            <mxPoint x="220" y="225" as="sourcePoint" />
            <mxPoint x="555" y="405" as="targetPoint" />
          </mxGeometry>
        </mxCell>
        <mxCell id="d2HoR_rY1_GPFjVi6Aux-3" value="Verbindung zu Sekundärserver" style="shape=ext;rounded=1;html=1;whiteSpace=wrap;" parent="1" vertex="1">
          <mxGeometry x="110" y="370" width="109.99999999999999" height="60" as="geometry" />
        </mxCell>
        <mxCell id="d2HoR_rY1_GPFjVi6Aux-4" style="edgeStyle=orthogonalEdgeStyle;rounded=0;html=1;jettySize=auto;orthogonalLoop=1;exitX=0.5;exitY=1;exitDx=0;exitDy=0;entryX=0.5;entryY=0;entryDx=0;entryDy=0;" parent="1" source="7a84cebc1def654-8" target="d2HoR_rY1_GPFjVi6Aux-3" edge="1">
          <mxGeometry relative="1" as="geometry">
            <mxPoint x="370" y="545" as="sourcePoint" />
            <mxPoint x="555" y="615" as="targetPoint" />
          </mxGeometry>
        </mxCell>
        <mxCell id="d2HoR_rY1_GPFjVi6Aux-5" value="Primär Server wieder online" style="shape=ext;rounded=1;html=1;whiteSpace=wrap;" parent="1" vertex="1">
          <mxGeometry x="110" y="470" width="109.99999999999999" height="60" as="geometry" />
        </mxCell>
        <mxCell id="d2HoR_rY1_GPFjVi6Aux-6" style="edgeStyle=orthogonalEdgeStyle;rounded=0;html=1;jettySize=auto;orthogonalLoop=1;exitX=0.5;exitY=1;exitDx=0;exitDy=0;entryX=0.5;entryY=0;entryDx=0;entryDy=0;" parent="1" source="d2HoR_rY1_GPFjVi6Aux-3" target="d2HoR_rY1_GPFjVi6Aux-5" edge="1">
          <mxGeometry relative="1" as="geometry">
            <mxPoint x="555" y="565" as="sourcePoint" />
            <mxPoint x="740" y="635" as="targetPoint" />
          </mxGeometry>
        </mxCell>
        <mxCell id="d2HoR_rY1_GPFjVi6Aux-7" value="Verbindungs-&lt;br&gt;versuch zu Primär" style="shape=ext;rounded=1;html=1;whiteSpace=wrap;" parent="1" vertex="1">
          <mxGeometry x="280" y="280" width="109.99999999999999" height="60" as="geometry" />
        </mxCell>
        <mxCell id="d2HoR_rY1_GPFjVi6Aux-8" style="edgeStyle=orthogonalEdgeStyle;rounded=0;html=1;jettySize=auto;orthogonalLoop=1;entryX=0.5;entryY=1;entryDx=0;entryDy=0;exitX=1;exitY=0.5;exitDx=0;exitDy=0;" parent="1" source="d2HoR_rY1_GPFjVi6Aux-5" target="d2HoR_rY1_GPFjVi6Aux-7" edge="1">
          <mxGeometry relative="1" as="geometry">
            <mxPoint x="370" y="675" as="sourcePoint" />
            <mxPoint x="870" y="695" as="targetPoint" />
          </mxGeometry>
        </mxCell>
        <mxCell id="d2HoR_rY1_GPFjVi6Aux-11" style="edgeStyle=orthogonalEdgeStyle;rounded=0;orthogonalLoop=1;jettySize=auto;html=1;exitX=0.5;exitY=1;exitDx=0;exitDy=0;" parent="1" source="d2HoR_rY1_GPFjVi6Aux-3" target="d2HoR_rY1_GPFjVi6Aux-3" edge="1">
          <mxGeometry relative="1" as="geometry" />
        </mxCell>
        <mxCell id="d2HoR_rY1_GPFjVi6Aux-16" value="Rückkehr in&lt;br&gt;Ursprungszustand" style="points=[[0.145,0.145,0],[0.5,0,0],[0.855,0.145,0],[1,0.5,0],[0.855,0.855,0],[0.5,1,0],[0.145,0.855,0],[0,0.5,0]];shape=mxgraph.bpmn.event;html=1;verticalLabelPosition=bottom;labelBackgroundColor=none;verticalAlign=top;align=center;perimeter=ellipsePerimeter;outlineConnect=0;aspect=fixed;outline=end;symbol=terminate;" parent="1" vertex="1">
          <mxGeometry x="140" y="560" width="50" height="50" as="geometry" />
        </mxCell>
        <mxCell id="O97MBh1qIsaYhIgSIjDV-11" style="edgeStyle=orthogonalEdgeStyle;rounded=0;html=1;jettySize=auto;orthogonalLoop=1;entryX=0.5;entryY=0;entryDx=0;entryDy=0;exitX=0.5;exitY=1;exitDx=0;exitDy=0;entryPerimeter=0;" parent="1" source="d2HoR_rY1_GPFjVi6Aux-5" target="d2HoR_rY1_GPFjVi6Aux-16" edge="1">
          <mxGeometry relative="1" as="geometry">
            <mxPoint x="195" y="700" as="sourcePoint" />
            <mxPoint x="364.5" y="812" as="targetPoint" />
          </mxGeometry>
        </mxCell>
        <mxCell id="bk6HHgUinGHfW-IjAUi0-1" value="Abbruch der Verbindung" style="points=[[0.145,0.145,0],[0.5,0,0],[0.855,0.145,0],[1,0.5,0],[0.855,0.855,0],[0.5,1,0],[0.145,0.855,0],[0,0.5,0]];shape=mxgraph.bpmn.event;html=1;verticalLabelPosition=middle;labelBackgroundColor=none;verticalAlign=middle;align=right;perimeter=ellipsePerimeter;outlineConnect=0;aspect=fixed;outline=boundInt;symbol=cancel;labelPosition=left;" vertex="1" parent="1">
          <mxGeometry x="140" y="200" width="50" height="50" as="geometry" />
        </mxCell>
        <mxCell id="bk6HHgUinGHfW-IjAUi0-2" style="edgeStyle=orthogonalEdgeStyle;rounded=0;html=1;jettySize=auto;orthogonalLoop=1;entryX=1;entryY=0.5;entryDx=0;entryDy=0;exitX=0.5;exitY=0;exitDx=0;exitDy=0;" edge="1" parent="1" source="d2HoR_rY1_GPFjVi6Aux-7" target="7a84cebc1def654-2">
          <mxGeometry relative="1" as="geometry">
            <mxPoint x="175" y="540" as="sourcePoint" />
            <mxPoint x="345" y="350" as="targetPoint" />
          </mxGeometry>
        </mxCell>
      </root>
    </mxGraphModel>
  </diagram>
</mxfile>
